<svg width="40" height="40" viewBox="0 0 40 40" fill="none" xmlns="http://www.w3.org/2000/svg">
<g id="Property 1=&#208;&#187;&#209;&#150;&#208;&#182;&#208;&#186;&#208;&#176;">
<path id="Vector" fill-rule="evenodd" clip-rule="evenodd" d="M4.24554 12.8124H8.13609V11.0803C8.13609 10.1473 8.49394 9.29761 9.07043 8.68009C9.65434 8.05473 10.4617 7.66633 11.3507 7.66633H16.3196C17.209 7.66633 18.0159 8.05429 18.5998 8.68009C19.1763 9.29761 19.5341 10.1473 19.5341 11.0803V12.8124H21.285V11.0803C21.285 10.1473 21.6428 9.29761 22.2193 8.68009C22.8032 8.05473 23.6106 7.66633 24.4995 7.66633H29.4684C30.3578 7.66633 31.1647 8.05429 31.7486 8.68009C32.3251 9.29761 32.683 10.1473 32.683 11.0803V12.8124H36.5735V5.22857C36.5735 5.21242 36.5631 5.1954 36.5465 5.18056C36.5168 5.15394 36.4727 5.13779 36.4217 5.13779H31.4113C31.0901 5.13779 30.789 5.04833 30.5394 4.88861C30.2815 4.72408 30.0811 4.48712 29.9707 4.19865C29.6172 3.27478 28.4054 2.44081 26.6532 1.82635C24.8578 1.19662 22.5204 0.816513 19.9587 0.816513C17.3935 0.816513 15.0531 1.19749 13.2499 1.82897C11.4829 2.44736 10.2535 3.28831 9.87866 4.22004C9.76432 4.50413 9.56445 4.73543 9.31002 4.89515C9.06171 5.05095 8.76408 5.13779 8.44638 5.13779H4.39698C4.34592 5.13779 4.30184 5.15438 4.27216 5.18056C4.25558 5.1954 4.24511 5.21286 4.24511 5.22857L4.24554 12.8124ZM22.1015 12.8124V11.0803C22.1015 10.3603 22.3751 9.70695 22.8159 9.23476C23.2492 8.77043 23.8454 8.48284 24.5 8.48284H29.4689C30.1235 8.48284 30.7196 8.77087 31.153 9.23476C31.5937 9.70695 31.8674 10.3598 31.8674 11.0803V12.8124H22.1015ZM8.95217 12.8124V11.0803C8.95217 10.3603 9.22579 9.70695 9.66656 9.23476C10.0999 8.77043 10.696 8.48284 11.3507 8.48284H16.3196C16.9742 8.48284 17.5703 8.77087 18.0036 9.23476C18.4444 9.70695 18.718 10.3598 18.718 11.0803V12.8124H8.95217ZM37.3909 13.1916L39.7597 27.3006C39.7706 27.3648 39.7654 27.4285 39.7475 27.4865V33.2283C39.7475 33.241 39.7471 33.2532 39.7458 33.2654C39.7471 33.2776 39.7475 33.2903 39.7475 33.3029V39.592C39.7475 39.8176 39.5647 40 39.3395 40H36.0966C35.9298 40 35.7863 39.8996 35.723 39.7565L32.2645 33.6368H8.5018L5.04329 39.7565C4.98001 39.9001 4.83644 40 4.66973 40H1.4268C1.20162 40 1.01877 39.8171 1.01877 39.592V33.3029C1.01877 33.2903 1.0192 33.2776 1.02051 33.2654C1.0192 33.2532 1.01877 33.241 1.01877 33.2283V27.4896C1.00655 27.4507 1 27.4097 1 27.3674C1 27.3351 1.00393 27.3032 1.01091 27.2731L3.38146 13.1532C3.38975 13.1048 3.4059 13.0594 3.42903 13.0188V5.22857C3.42903 4.96978 3.54424 4.73717 3.73059 4.57134C3.90384 4.41685 4.13993 4.32128 4.39741 4.32128H8.44681C8.6109 4.32128 8.75884 4.27982 8.87667 4.20607C8.98795 4.13625 9.0748 4.03718 9.12324 3.91673C9.58932 2.75808 10.9945 1.75566 12.9824 1.06003C14.8707 0.398874 17.3058 0 19.9592 0C22.6095 0 25.0411 0.398438 26.9216 1.05785C28.8998 1.75173 30.2906 2.75153 30.7331 3.90844C30.7803 4.03107 30.8662 4.13275 30.9767 4.20302C31.0954 4.27895 31.2455 4.32128 31.4117 4.32128H36.423C36.6805 4.32128 36.9166 4.41685 37.0898 4.57134C37.2757 4.73717 37.3914 4.96978 37.3914 5.22857L37.3909 13.1916ZM38.931 33.6363H33.1971L36.3322 39.1835H38.931V33.6363ZM7.56877 33.6363H1.83484V39.1835H4.43363L7.56877 33.6363ZM38.931 27.7759H1.83484V32.8203H38.9306L38.931 27.7759ZM36.6381 13.6289H4.12771L1.88983 26.9593H38.876L36.6381 13.6289Z" fill="#2A2928"/>
</g>
</svg>
