<svg width="40" height="40" viewBox="0 0 40 40" fill="none" xmlns="http://www.w3.org/2000/svg">
<g id="Property 1=&#209;&#130;&#209;&#131;&#208;&#188;&#208;&#177;&#208;&#190;&#209;&#135;&#208;&#186;&#208;&#184;">
<path id="Vector" fill-rule="evenodd" clip-rule="evenodd" d="M14.2946 36.2387L13.5209 39.681C13.4786 39.8704 13.3101 39.9991 13.1238 39.9987V40H11.1796C10.9736 40 10.8034 39.8477 10.7755 39.6496L10.0092 36.2391H8.40803C8.18285 36.2391 8 36.0563 8 35.8311V27.0507V27.0472V27.0437V18.2638C8 18.0382 8.18285 17.8553 8.40803 17.8553C8.42025 17.8553 8.43204 17.8557 8.44426 17.8571H15.932V16.746C15.932 16.3938 16.076 16.0735 16.3077 15.8418C16.5395 15.61 16.8598 15.466 17.212 15.466H19.6789V11.0741H14.1502C13.925 11.0741 13.7417 10.8912 13.7417 10.6661C13.7417 10.6167 13.7504 10.5696 13.7666 10.526L16.21 2.41766C16.2628 2.24091 16.4247 2.12614 16.6006 2.12658L18.3776 2.12614V1.99304C18.3776 1.4615 18.56 0.973172 18.8537 0.615324C19.1653 0.235656 19.6013 0 20.0865 0C20.5718 0 21.0078 0.235656 21.3194 0.615324C21.6135 0.973172 21.7959 1.4615 21.7959 1.99304V2.1257H23.5725C23.765 2.1257 23.926 2.25881 23.9692 2.43773L26.4135 10.5491C26.4776 10.7647 26.355 10.9916 26.1394 11.0562C26.1006 11.0675 26.0617 11.0732 26.0233 11.0732L20.4946 11.0737V15.4656H22.9615C23.3137 15.4656 23.634 15.6096 23.8658 15.8413C24.0975 16.0731 24.2415 16.3934 24.2415 16.7455V17.8566H31.765C31.9893 17.8566 32.1718 18.0386 32.1718 18.2633H32.1735V27.0468V35.8302C32.1735 36.0558 31.9907 36.2382 31.765 36.2382H30.1639L29.3906 39.6806C29.3478 39.87 29.1798 39.9987 28.9935 39.9983V39.9996H27.0489C26.8429 39.9996 26.6727 39.8473 26.6448 39.6491L25.8784 36.2387H14.2946ZM19.1937 2.12614H20.9794V1.99304C20.9794 1.65308 20.869 1.34848 20.6914 1.13202C20.5317 0.937387 20.317 0.816505 20.0865 0.816505C19.8561 0.816505 19.6418 0.937387 19.4817 1.13202C19.3041 1.34848 19.1937 1.65308 19.1937 1.99304V2.12614ZM14.6987 10.258H20.0865H25.4743L23.2701 2.94221H21.3879H18.7856H16.9034L14.6987 10.258ZM16.7476 17.8571H23.425V16.746C23.425 16.619 23.3726 16.5033 23.2884 16.4191C23.2042 16.3349 23.0885 16.2825 22.9615 16.2825H20.0865H17.2111C17.0841 16.2825 16.9685 16.3349 16.8838 16.4191C16.7996 16.5033 16.7472 16.619 16.7472 16.746L16.7476 17.8571ZM16.3754 18.6701C16.3636 18.6714 16.3518 18.6718 16.3396 18.6718C16.3274 18.6718 16.3156 18.6714 16.3034 18.6701H8.81607V26.6387H31.3574V18.6701H23.8693C23.8575 18.6714 23.8457 18.6718 23.8335 18.6718C23.8212 18.6718 23.8095 18.6714 23.7977 18.6701H16.3754ZM31.357 27.4552H8.81607V35.4222H31.3574V27.4552H31.357ZM10.8431 36.2387L11.5052 39.1835H12.7991L13.4611 36.2387H10.8431ZM29.3299 36.2387H26.7124L27.374 39.1835H28.6683L29.3299 36.2387ZM18.0813 30.984H22.0918C22.317 30.984 22.4998 30.8011 22.4998 30.5759C22.4998 30.3503 22.317 30.1679 22.0918 30.1679H18.0813C17.8561 30.1679 17.6732 30.3508 17.6732 30.5759C17.6732 30.8011 17.8561 30.984 18.0813 30.984ZM18.0813 23.9265H22.0918C22.317 23.9265 22.4998 23.7437 22.4998 23.5185C22.4998 23.2929 22.317 23.1104 22.0918 23.1104H18.0813C17.8561 23.1104 17.6732 23.2933 17.6732 23.5185C17.6732 23.7437 17.8561 23.9265 18.0813 23.9265Z" fill="#2A2928"/>
</g>
</svg>
