<svg width="40" height="40" viewBox="0 0 40 40" fill="none" xmlns="http://www.w3.org/2000/svg">
<g id="Property 1=&#208;&#180;&#208;&#184;&#208;&#178;&#208;&#176;&#208;&#189;&#208;&#184;">
<path id="Vector" fill-rule="evenodd" clip-rule="evenodd" d="M11.4473 10.8019C11.8397 10.8019 12.1949 10.9608 12.452 11.2178C12.709 11.4749 12.8683 11.8301 12.8683 12.2225C12.8683 12.6148 12.7094 12.9696 12.452 13.2266C12.1949 13.4837 11.8397 13.643 11.4473 13.643C11.055 13.643 10.7002 13.4841 10.4432 13.2266C10.1861 12.9696 10.0268 12.6143 10.0268 12.2225C10.0268 11.8301 10.1857 11.4753 10.4432 11.2178C10.7002 10.9608 11.0554 10.8019 11.4473 10.8019ZM33.9958 14.2478V11.6429C33.9958 11.1039 33.8649 10.6217 33.6532 10.2791C33.4773 9.99414 33.2543 9.8174 33.0261 9.8174H7.12732C6.89907 9.8174 6.67607 9.99414 6.50019 10.2791C6.28897 10.6217 6.15761 11.1039 6.15761 11.6429V14.5398L8.1459 18.3073C8.19914 17.7714 8.44047 17.2892 8.80182 16.9274C9.21336 16.5159 9.78156 16.2601 10.4069 16.2601H18.1353C18.7607 16.2601 19.3289 16.5154 19.7404 16.9274C19.8356 17.0225 19.922 17.126 19.9992 17.2364C20.0765 17.126 20.1633 17.0225 20.258 16.9274C20.6696 16.5159 21.2378 16.2601 21.8631 16.2601H29.5915C30.2169 16.2601 30.7851 16.5154 31.1967 16.9274C31.5584 17.2892 31.7993 17.7714 31.8526 18.3073L33.9958 14.2478ZM5.40262 14.8536C5.39258 14.8374 5.38342 14.8204 5.37556 14.8025L4.21166 12.5969L4.20293 12.5812L4.2038 12.5807L4.20293 12.5794C4.13398 12.4599 4.01789 12.3796 3.88741 12.3455C3.75081 12.3097 3.59938 12.3237 3.46671 12.3935L3.44838 12.4036L1.08914 13.7656L1.08871 13.7652L1.0874 13.7656C0.957347 13.8407 0.871374 13.962 0.834716 14.0986C0.796311 14.2426 0.812459 14.4041 0.889703 14.549L5.62083 23.4552C5.95206 24.0784 6.4247 24.5611 6.98854 24.891C6.99552 24.8945 7.00294 24.8984 7.00992 24.9024C7.60431 25.2458 8.30344 25.4243 9.04752 25.4243H30.951C31.695 25.4243 32.3937 25.2458 32.9886 24.9024L32.989 24.9032L32.9903 24.9024C33.5624 24.572 34.0429 24.0854 34.3776 23.4552L39.1088 14.549C39.186 14.4036 39.2022 14.2426 39.1638 14.0986C39.1271 13.9615 39.0411 13.8407 38.9111 13.7656L36.5728 12.4153C36.5649 12.4114 36.5575 12.4075 36.5501 12.4031L36.5318 12.3931C36.3991 12.3233 36.2477 12.3093 36.1111 12.3451C35.9863 12.3778 35.875 12.4524 35.8051 12.5633L35.7873 12.596L31.8299 20.0949C31.822 20.1123 31.8133 20.1293 31.8033 20.145L31.4218 20.8682C31.3084 21.0833 31.1452 21.2522 30.9492 21.3718C30.9409 21.3775 30.9322 21.3831 30.9235 21.3879C30.7135 21.5093 30.4722 21.5721 30.2204 21.5721H19.9997H9.77938C9.53936 21.5721 9.30762 21.5141 9.10425 21.4023C9.09509 21.398 9.08593 21.3932 9.07676 21.3879C8.8699 21.2684 8.69708 21.0938 8.57794 20.8677L8.19608 20.1446C8.18605 20.1285 8.17732 20.1114 8.16946 20.094L5.40262 14.8536ZM5.34152 12.9923L4.93261 12.2177C4.92519 12.2033 4.9169 12.1884 4.90817 12.1731L4.9073 12.1736C4.72313 11.8554 4.42463 11.6451 4.09208 11.5582C3.76565 11.4727 3.40474 11.5063 3.0879 11.6734C3.07263 11.6813 3.05692 11.69 3.04077 11.6992L0.681536 13.0617L0.681972 13.0621C0.353355 13.2524 0.137768 13.5526 0.0478679 13.8887C-0.0424691 14.2264 -0.00668343 14.6005 0.170063 14.9321L4.90119 23.838C5.30356 24.596 5.88442 25.1865 6.58006 25.5932C6.58748 25.598 6.5949 25.6028 6.60275 25.6072C6.84059 25.7442 7.09066 25.8598 7.35119 25.9532L6.36229 29.7208C6.30599 29.9381 6.43648 30.1602 6.65425 30.2165C6.68829 30.2253 6.72233 30.2296 6.75637 30.2296V30.2309H8.81972C8.98293 30.2309 9.12389 30.1349 9.18892 29.9966L11.2527 26.2408H28.748L30.8117 29.9966C30.8772 30.1349 31.0177 30.2309 31.1809 30.2309H33.2443V30.2296C33.2779 30.2296 33.3124 30.2253 33.3464 30.2165C33.5637 30.1602 33.6947 29.9381 33.6379 29.7208L32.649 25.9532C32.9096 25.8598 33.1601 25.7446 33.3975 25.6072L33.397 25.6063C34.1027 25.1987 34.6919 24.6039 35.099 23.8375L39.8302 14.9317C40.0065 14.6 40.0427 14.226 39.9519 13.8882C39.8616 13.5518 39.6456 13.2511 39.3165 13.0608L36.9795 11.7114C36.9725 11.7071 36.966 11.7027 36.9586 11.6983C36.9424 11.6892 36.9267 11.6804 36.9114 11.6726C36.595 11.5054 36.2337 11.4718 35.9073 11.5574C35.5839 11.642 35.2932 11.8428 35.1078 12.1461C35.1021 12.1544 35.0964 12.1631 35.0912 12.1723C35.0825 12.1871 35.0746 12.2019 35.0667 12.2168L34.8119 12.6995V11.6416C34.8119 10.9525 34.6329 10.3175 34.3449 9.85056C34.0211 9.32556 33.5555 9 33.0261 9H7.12732C6.59795 9 6.13186 9.32556 5.80848 9.85056C5.52045 10.3175 5.34152 10.9521 5.34152 11.6416V12.9923ZM30.9514 26.2421C31.2617 26.2421 31.5663 26.2155 31.8622 26.1627L32.7158 29.4157H31.421L29.6771 26.2421H30.9514ZM10.3223 26.2421L8.57838 29.4157H7.28355L8.13717 26.1627C8.43306 26.2151 8.73767 26.2421 9.04796 26.2421H10.3223ZM8.95108 19.833V18.5325C8.95108 18.1323 9.11516 17.7688 9.37919 17.5043C9.64322 17.2403 10.0072 17.0762 10.4069 17.0762H18.1353C18.5355 17.0762 18.899 17.2403 19.1635 17.5043C19.4275 17.7684 19.5916 18.1323 19.5916 18.5325V20.7582H9.77938C9.67508 20.7582 9.57907 20.7364 9.49964 20.6945L9.48481 20.6853C9.408 20.6408 9.34341 20.5753 9.29846 20.4907L8.95108 19.833ZM20.4077 20.7578V18.5321C20.4077 18.1319 20.5718 17.7684 20.8358 17.5039C21.0999 17.2399 21.4638 17.0758 21.8636 17.0758H29.592C29.9922 17.0758 30.3561 17.2399 30.6202 17.5039C30.8842 17.7679 31.0483 18.1319 31.0483 18.5321V19.8326L30.7013 20.4902C30.6594 20.5701 30.601 20.6321 30.532 20.6757L30.515 20.6849C30.4321 20.7329 30.3308 20.7578 30.2204 20.7578H20.4077ZM28.7061 10.8019C29.0984 10.8019 29.4532 10.9608 29.7102 11.2178C29.9673 11.4749 30.1266 11.8301 30.1266 12.2225C30.1266 12.6148 29.9677 12.9696 29.7102 13.2266C29.4532 13.4837 29.098 13.643 28.7061 13.643C28.3137 13.643 27.9589 13.4841 27.7019 13.2266C27.4448 12.9696 27.2855 12.6143 27.2855 12.2225C27.2855 11.8301 27.4444 11.4753 27.7019 11.2178C27.9585 10.9608 28.3137 10.8019 28.7061 10.8019ZM29.1333 11.7952C29.2424 11.9043 29.3101 12.0557 29.3101 12.2225C29.3101 12.3892 29.2424 12.5406 29.1333 12.6497C29.0238 12.7588 28.8728 12.8264 28.7061 12.8264C28.5393 12.8264 28.3879 12.7588 28.2788 12.6497C28.1697 12.5402 28.1021 12.3892 28.1021 12.2225C28.1021 12.0557 28.1697 11.9043 28.2788 11.7952C28.3884 11.6857 28.5393 11.6185 28.7061 11.6185C28.8728 11.618 29.0238 11.6857 29.1333 11.7952ZM22.9533 10.8019C23.3456 10.8019 23.7004 10.9608 23.9575 11.2178C24.2145 11.4749 24.3734 11.8301 24.3734 12.2225C24.3734 12.6148 24.2145 12.9696 23.9575 13.2266C23.7004 13.4837 23.3452 13.643 22.9533 13.643C22.561 13.643 22.2062 13.4841 21.9487 13.2266C21.6916 12.9696 21.5328 12.6143 21.5328 12.2225C21.5328 11.8301 21.6916 11.4753 21.9487 11.2178C22.2057 10.9608 22.561 10.8019 22.9533 10.8019ZM23.3801 11.7952C23.4896 11.9043 23.5569 12.0557 23.5569 12.2225C23.5569 12.3892 23.4892 12.5406 23.3801 12.6497C23.271 12.7588 23.12 12.8264 22.9529 12.8264C22.7862 12.8264 22.6347 12.7588 22.5256 12.6497C22.4161 12.5402 22.3489 12.3892 22.3489 12.2225C22.3489 12.0557 22.4165 11.9043 22.5256 11.7952C22.6347 11.6857 22.7857 11.6185 22.9529 11.6185C23.12 11.618 23.271 11.6857 23.3801 11.7952ZM17.2001 10.8019C17.5924 10.8019 17.9472 10.9608 18.2043 11.2178C18.4613 11.4749 18.6206 11.8301 18.6206 12.2225C18.6206 12.6148 18.4613 12.9696 18.2043 13.2266C17.9472 13.4837 17.592 13.643 17.2001 13.643C16.8078 13.643 16.4525 13.4841 16.1955 13.2266C15.9384 12.9696 15.7796 12.6143 15.7796 12.2225C15.7796 11.8301 15.9384 11.4753 16.1955 11.2178C16.453 10.9608 16.8082 10.8019 17.2001 10.8019ZM17.6273 11.7952C17.7369 11.9043 17.8041 12.0557 17.8041 12.2225C17.8041 12.3892 17.7365 12.5406 17.6273 12.6497C17.5182 12.7588 17.3672 12.8264 17.2001 12.8264C17.0334 12.8264 16.882 12.7588 16.7729 12.6497C16.6633 12.5402 16.5961 12.3892 16.5961 12.2225C16.5961 12.0557 16.6638 11.9043 16.7729 11.7952C16.882 11.6857 17.033 11.6185 17.2001 11.6185C17.3672 11.618 17.5182 11.6857 17.6273 11.7952ZM11.8746 11.7952C11.765 11.6857 11.6141 11.6185 11.4473 11.6185C11.2806 11.6185 11.1296 11.6861 11.0201 11.7952C10.911 11.9043 10.8433 12.0557 10.8433 12.2225C10.8433 12.3892 10.911 12.5406 11.0201 12.6497C11.1296 12.7588 11.2806 12.8264 11.4473 12.8264C11.6141 12.8264 11.7655 12.7588 11.8746 12.6497C11.9837 12.5402 12.0513 12.3892 12.0513 12.2225C12.0518 12.0557 11.9841 11.9043 11.8746 11.7952Z" fill="#2A2928"/>
</g>
</svg>
