<svg width="40" height="40" viewBox="0 0 40 40" fill="none" xmlns="http://www.w3.org/2000/svg">
<g id="Property 1=&#209;&#150;&#208;&#189;&#209;&#136;&#208;&#181;">
<path id="Vector" fill-rule="evenodd" clip-rule="evenodd" d="M27.8589 6.77617V3.84967C27.8589 3.6018 27.9746 3.38098 28.1609 3.22518C28.3272 3.08597 28.5524 3 28.7954 3H30.562C30.8055 3 31.0302 3.08641 31.1965 3.22518C31.3828 3.38098 31.4985 3.6018 31.4985 3.84967V6.77617H34.6397C34.9255 6.77617 35.1852 6.89269 35.3728 7.08078C35.5609 7.26887 35.6775 7.52852 35.6775 7.81393V9.91912C35.6775 10.205 35.5609 10.4646 35.3728 10.6523C35.1852 10.8404 34.9255 10.9569 34.6397 10.9569H31.4989V14.6907H34.6401C34.926 14.6907 35.1856 14.8072 35.3733 14.9953C35.5614 15.1834 35.6779 15.4426 35.6779 15.7285V17.8337C35.6779 18.1195 35.5614 18.3792 35.3733 18.5668C35.1856 18.7549 34.926 18.8714 34.6401 18.8714H31.4989V22.621H39.5915C39.8171 22.621 40 22.8038 40 23.029V26.5416C40 26.7668 39.8171 26.9496 39.5915 26.9496H38.9378V36.1607C38.9378 36.3859 38.7549 36.5688 38.5298 36.5688H35.5749C35.3497 36.5688 35.1669 36.3859 35.1669 36.1607V26.9501H33.5099V32.8572C33.5099 33.0828 33.327 33.2652 33.1018 33.2652H30.4738C30.2486 33.2652 30.0658 33.0824 30.0658 32.8572V26.9501H9.93465V32.8572C9.93465 33.0828 9.7518 33.2652 9.52661 33.2652H6.89818C6.67256 33.2652 6.49014 33.0824 6.49014 32.8572V26.9501H4.83313V36.1612C4.83313 36.3864 4.65028 36.5692 4.42466 36.5692H1.4698C1.24461 36.5692 1.06176 36.3864 1.06176 36.1612V26.9501H0.408034C0.182852 26.9501 0 26.7672 0 26.542V23.0295C0 22.8038 0.182852 22.6214 0.408034 22.6214H8.30208V18.8719H5.35943C5.07359 18.8719 4.81393 18.7554 4.62628 18.5673C4.43819 18.3796 4.32167 18.12 4.32167 17.8341V15.7289C4.32167 15.4431 4.43819 15.1834 4.62628 14.9958C4.81437 14.8077 5.07359 14.6912 5.35943 14.6912H8.30208V10.9573H5.35943C5.07359 10.9573 4.81393 10.8408 4.62628 10.6527C4.43819 10.4646 4.32167 10.2054 4.32167 9.91956V7.81393C4.32167 7.52809 4.43819 7.26843 4.62628 7.08078C4.81437 6.89313 5.07359 6.77617 5.35943 6.77617H8.30208V3.84967C8.30208 3.6018 8.41772 3.38098 8.60406 3.22518C8.77033 3.08597 8.99552 3 9.23859 3H11.0051C11.2486 3 11.4734 3.08641 11.6401 3.22518C11.8264 3.38098 11.9421 3.6018 11.9421 3.84967V6.77617H27.8589ZM10.0996 8.05002C9.64881 8.05002 9.2831 8.41573 9.2831 8.86653C9.2831 9.31733 9.64837 9.68303 10.0996 9.68303C10.5504 9.68303 10.9161 9.31777 10.9161 8.86653C10.9157 8.41573 10.5504 8.05002 10.0996 8.05002ZM10.0996 15.9646C9.64881 15.9646 9.2831 16.3303 9.2831 16.7811C9.2831 17.2319 9.64837 17.5976 10.0996 17.5976C10.5504 17.5976 10.9161 17.2323 10.9161 16.7811C10.9157 16.3303 10.5504 15.9646 10.0996 15.9646ZM29.6791 15.9646C29.2283 15.9646 28.8626 16.3303 28.8626 16.7811C28.8626 17.2319 29.2279 17.5976 29.6791 17.5976C30.1299 17.5976 30.4956 17.2323 30.4956 16.7811C30.4952 16.3303 30.1299 15.9646 29.6791 15.9646ZM29.6791 8.05002C29.2283 8.05002 28.8626 8.41573 28.8626 8.86653C28.8626 9.31733 29.2279 9.68303 29.6791 9.68303C30.1299 9.68303 30.4956 9.31777 30.4956 8.86653C30.4952 8.41573 30.1299 8.05002 29.6791 8.05002ZM30.6824 14.6907V10.9569H28.6754V14.6907H30.6824ZM27.8589 14.6907V10.9569H11.9417V14.6907H27.8589ZM11.1256 14.6907V10.9569H9.11814V14.6907H11.1256ZM30.6824 18.8714H28.6754V22.621H30.6824V18.8714ZM27.8589 18.8714H11.9417V22.621H27.8589V18.8714ZM11.1256 18.8714H9.11814V22.621H11.1256V18.8714ZM34.6401 15.5068H31.0909H28.2674H11.5336H8.71011H5.35943C5.29877 15.5068 5.24378 15.5317 5.2032 15.5723C5.16305 15.6124 5.13774 15.6678 5.13774 15.7285V17.8337C5.13774 17.8943 5.16261 17.9493 5.2032 17.9899C5.24335 18.0301 5.29877 18.0554 5.35943 18.0554H8.71011H11.5336H28.2674H31.0909H34.6401C34.7004 18.0554 34.7558 18.0305 34.7964 17.9899C34.8365 17.9498 34.8618 17.8943 34.8618 17.8337V15.7285C34.8618 15.6678 34.8369 15.6128 34.7964 15.5723C34.7558 15.5321 34.7004 15.5068 34.6401 15.5068ZM30.6824 6.77617V3.84967C30.6824 3.84443 30.6789 3.85447 30.6737 3.85011C30.6484 3.82916 30.6091 3.81607 30.562 3.81607H28.7954C28.7483 3.81607 28.709 3.82916 28.6837 3.85011C28.6785 3.85447 28.675 3.84443 28.675 3.84967V6.77617H30.6824ZM9.11814 6.77617H11.1256V3.84967C11.1256 3.84443 11.1221 3.85447 11.1169 3.85011C11.0915 3.82916 11.0523 3.81607 11.0051 3.81607H9.23859C9.19146 3.81607 9.15218 3.82916 9.12687 3.85011C9.12164 3.85447 9.11814 3.84443 9.11814 3.84967V6.77617ZM34.6401 7.59268H31.0909H28.2674H11.5336H8.71011H5.35943C5.29877 7.59268 5.24378 7.61755 5.2032 7.65813C5.16305 7.69828 5.13774 7.75371 5.13774 7.81437V9.91956C5.13774 9.98022 5.16261 10.0352 5.2032 10.0758C5.24335 10.1159 5.29877 10.1413 5.35943 10.1413H8.71011H11.5336H28.2674H31.0909H34.6401C34.7004 10.1413 34.7558 10.1164 34.7964 10.0758C34.8365 10.0356 34.8618 9.98022 34.8618 9.91956V7.81393C34.8618 7.75327 34.8369 7.69828 34.7964 7.6577C34.7558 7.61755 34.7004 7.59268 34.6401 7.59268ZM1.87783 26.9501V35.7527H4.01663V26.9501H1.87783ZM35.9829 26.9501V35.7527H38.1213V26.9501H35.9829ZM7.30621 26.9501V32.4492H9.11814V26.9501H7.30621ZM30.881 26.9501V32.4492H32.6929V26.9501H30.881ZM39.1835 23.4371H31.0909H28.2674H11.5336H8.71011H0.816068V26.1336H1.46936H4.42422H6.89774H9.52618H30.4725H33.1005H35.574H38.5289H39.1826V23.4371H39.1835Z" fill="#2A2928"/>
</g>
</svg>
