<svg width="40" height="40" viewBox="0 0 40 40" fill="none" xmlns="http://www.w3.org/2000/svg">
<g id="Property 1=&#209;&#130;&#208;&#176;&#208;&#177;&#209;&#131;&#209;&#128;&#208;&#181;&#209;&#130;&#208;&#186;&#208;&#184;" clip-path="url(#clip0_358_3818)">
<path id="Vector" fill-rule="evenodd" clip-rule="evenodd" d="M5.5275 0H34.4725C35.9929 0 37.375 0.621877 38.3766 1.62343C39.3781 2.62498 40 4.00707 40 5.5275C40 7.04794 39.3781 8.43003 38.3766 9.43158C37.7704 10.0377 37.0246 10.5047 36.1937 10.7792C36.2081 10.7927 36.222 10.8063 36.236 10.8202C36.5947 11.1789 36.8173 11.6743 36.8173 12.2189C36.8173 12.764 36.5947 13.2589 36.236 13.6176C35.8773 13.9763 35.382 14.1989 34.8373 14.1989H33.1572L39.8302 38.772C39.8892 38.9893 39.7608 39.2136 39.5431 39.2725C39.5073 39.2821 39.4715 39.2869 39.4362 39.2869H35.2297C35.0276 39.2869 34.8605 39.1403 34.8273 38.9483L32.0103 28.0683H7.9897L5.17271 38.9483C5.13998 39.1407 4.9724 39.2869 4.77034 39.2869H0.563835C0.528486 39.2869 0.492701 39.2821 0.456916 39.2725C0.239586 39.2136 0.110847 38.9893 0.170198 38.772L6.84327 14.1993H5.16311C4.61804 14.1993 4.12315 13.9767 3.76443 13.618C3.4057 13.2593 3.18314 12.764 3.18314 12.2193C3.18314 11.6743 3.4057 11.1794 3.76443 10.8207C3.77839 10.8067 3.79236 10.7932 3.80676 10.7796C2.97541 10.5051 2.22959 10.0382 1.62343 9.43202C0.621877 8.43003 0 7.04837 0 5.52794C0 4.00751 0.621877 2.62541 1.62343 1.62386C2.62498 0.621877 4.00707 0 5.5275 0ZM8.20092 27.2517H31.7986L31.3107 25.3673H8.68882L8.20092 27.2517ZM8.90048 24.5508H31.0995L28.4191 14.1993H11.5809L8.90048 24.5508ZM10.7404 14.1993H7.68902L1.09756 38.4704H4.45613L10.7404 14.1993ZM32.311 14.1993H29.2596L35.5443 38.4704H38.9029L32.311 14.1993ZM34.4725 11.0554H5.5275H5.16311C4.84322 11.0554 4.55258 11.1864 4.34136 11.3976C4.13014 11.6088 3.99921 11.8995 3.99921 12.2193C3.99921 12.5388 4.13014 12.8299 4.34136 13.0411C4.55258 13.2523 4.84322 13.3832 5.16311 13.3832H34.8369C35.1563 13.3832 35.4474 13.2523 35.6586 13.0411C35.8699 12.8299 36.0008 12.5392 36.0008 12.2193C36.0008 11.8995 35.8694 11.6088 35.6586 11.3976C35.4474 11.1864 35.1563 11.0554 34.8369 11.0554H34.4725ZM34.4725 0.816514H5.5275C4.23225 0.816514 3.0544 1.34675 2.20035 2.20079C1.34631 3.05483 0.816077 4.23269 0.816077 5.52794C0.816077 6.82319 1.34631 8.00105 2.20035 8.85509C3.0544 9.70914 4.23225 10.2394 5.5275 10.2394H34.4725C35.7677 10.2394 36.9452 9.70914 37.7996 8.85509C38.6537 8.00105 39.1839 6.82319 39.1839 5.52794C39.1839 4.23269 38.6537 3.05483 37.7996 2.20079C36.9456 1.34675 35.7677 0.816514 34.4725 0.816514Z" fill="#2A2928"/>
</g>
<defs>
<clipPath id="clip0_358_3818">
<rect width="40" height="40" fill="white"/>
</clipPath>
</defs>
</svg>
