<svg width="40" height="40" viewBox="0 0 40 40" fill="none" xmlns="http://www.w3.org/2000/svg">
<g id="Frame 96">
<path id="Vector" fill-rule="evenodd" clip-rule="evenodd" d="M10.99 0H29.5291C30.3666 0 31.1281 0.342574 31.6797 0.894184C32.2313 1.44579 32.5739 2.20688 32.5739 3.04476C32.5739 3.88265 32.2313 4.64373 31.6797 5.19534C31.1281 5.74695 30.367 6.08953 29.5291 6.08953H29.1634V21.0965H33.4454C33.6265 21.0965 33.7915 21.1698 33.9154 21.2915C34.0297 21.4041 34.1074 21.559 34.1257 21.7336L34.5098 25.4229C34.5338 25.6555 34.5154 25.8777 34.4557 26.0858C34.395 26.2979 34.292 26.4943 34.1484 26.6723C34.0014 26.8539 33.8307 26.9927 33.6392 27.0878C33.4428 27.1847 33.2302 27.234 33.0046 27.234H32.5268V39.592C32.5268 39.8176 32.3439 40 32.1187 40H29.5806C29.355 40 29.1726 39.8171 29.1726 39.592V34.7628H11.3474V39.5915C11.3474 39.8171 11.1645 39.9996 10.9394 39.9996H8.40126C8.17564 39.9996 7.99323 39.8167 7.99323 39.5915V27.2335H7.51537C7.28975 27.2335 7.07723 27.1842 6.88085 27.0874C6.68927 26.9927 6.5182 26.8534 6.37157 26.6719C6.22799 26.4939 6.125 26.2975 6.06434 26.0854C6.00455 25.8772 5.98622 25.6551 6.01023 25.4225L6.39426 21.7332C6.41259 21.5582 6.48983 21.4037 6.6046 21.2911C6.72898 21.1689 6.8935 21.096 7.07461 21.096H11.3566V6.08909H10.9909C10.1534 6.08909 9.39189 5.74652 8.84028 5.19491C8.28867 4.6433 7.9461 3.88222 7.9461 3.04433C7.9461 2.20688 8.28867 1.44536 8.84028 0.893747C9.39102 0.342138 10.1525 0 10.99 0ZM29.1722 33.9467V32.4708H11.3474V33.9467H29.1722ZM29.1722 31.6543V27.2335H11.3474V31.6543H29.1722ZM31.7098 27.2335H29.9882V32.0623V34.3547V39.1831H31.7098V27.2335ZM10.5309 27.2335H8.8093V39.1831H10.5309V34.3547V32.0623V27.2335ZM28.3474 21.096V6.08909H27.0085V21.096H28.3474ZM26.192 21.096V6.08909H21.7455V21.096H26.192ZM20.929 21.096V6.08909H19.5901V21.096H20.929ZM18.7736 21.096V6.08909H14.3271V21.096H18.7736ZM13.5111 21.096V6.08909H12.1722V21.096H13.5111ZM33.3258 21.9125H28.7554H26.6H21.3375H19.1817H13.9191H11.7637H7.19331L6.81931 25.5058C6.80622 25.632 6.81582 25.7515 6.84768 25.8624C6.87866 25.9697 6.93103 26.0701 7.00522 26.1617C7.07592 26.2495 7.1549 26.3149 7.24044 26.3573C7.32117 26.397 7.41282 26.4175 7.5145 26.4175H8.40083H10.9389H29.5802H32.1183H33.0042C33.1059 26.4175 33.1975 26.397 33.2783 26.3573C33.3638 26.3154 33.4423 26.2499 33.5135 26.1617C33.5877 26.0701 33.64 25.9697 33.671 25.8624C33.7029 25.7515 33.7125 25.632 33.6994 25.5058L33.3258 21.9125ZM29.5291 0.816068H10.99C10.3777 0.816068 9.82087 1.067 9.41677 1.4711C9.01266 1.87521 8.76173 2.43206 8.76173 3.04433C8.76173 3.6566 9.01266 4.21388 9.41677 4.61755C9.82087 5.02166 10.3777 5.27259 10.99 5.27259H11.7637H13.9191H19.1817H21.337H26.6H28.7554H29.5291C30.1414 5.27259 30.6983 5.02166 31.1024 4.61755C31.5065 4.21344 31.7574 3.6566 31.7574 3.04433C31.7574 2.43206 31.5065 1.87521 31.1024 1.4711C30.6983 1.067 30.1414 0.816068 29.5291 0.816068Z" fill="#2A2928"/>
</g>
</svg>
