<svg width="40" height="40" viewBox="0 0 40 40" fill="none" xmlns="http://www.w3.org/2000/svg">
<g id="Property 1=&#209;&#129;&#209;&#130;&#209;&#150;&#208;&#187;">
<path id="Vector" fill-rule="evenodd" clip-rule="evenodd" d="M1.26077 6H38.7392C39.0862 6 39.4017 6.14183 39.6299 6.37007C39.8582 6.59831 40 6.9134 40 7.26077V9.28962C40 9.63656 39.8582 9.95208 39.6299 10.1803C39.4017 10.4086 39.0866 10.5504 38.7392 10.5504H35.0472V13.6096C35.0472 13.6445 35.0429 13.6781 35.0346 13.7104C35.0429 13.7427 35.0472 13.7763 35.0472 13.8112V32.1585C35.0472 32.4426 34.9312 32.701 34.7444 32.8878C34.5576 33.0746 34.2992 33.1906 34.0151 33.1906H32.5296C32.2468 33.1906 32.0024 33.0776 31.82 32.8956C31.6407 32.7163 31.525 32.4666 31.5006 32.1952L29.8562 14.0495C29.8553 14.039 29.8545 14.0281 29.8545 14.0176H10.1285L8.49942 31.9936C8.47498 32.2655 8.35934 32.5146 8.17954 32.694C7.99756 32.8764 7.75273 32.989 7.46994 32.989H5.98442C5.70032 32.989 5.44197 32.8729 5.25519 32.6862C5.06841 32.4994 4.95232 32.241 4.95232 31.9569V13.6092V10.55H1.26077C0.913832 10.55 0.598311 10.4081 0.370071 10.1799C0.141832 9.95165 0 9.63613 0 9.28918V7.26034C0 6.9134 0.141832 6.59787 0.370071 6.36963C0.598311 6.14183 0.913395 6 1.26077 6ZM34.2312 14.0176H30.6697L32.3101 32.1219C32.3175 32.2004 32.3485 32.2703 32.397 32.3187C32.4314 32.3532 32.4773 32.3746 32.5296 32.3746H34.0151C34.0741 32.3746 34.1282 32.3501 34.1674 32.3108C34.2067 32.2716 34.2312 32.2175 34.2312 32.1585V14.0176ZM34.2312 10.55H5.76884V13.2011H34.2312V10.55ZM9.31201 14.0176H5.76884V31.9569C5.76884 32.0158 5.79327 32.07 5.83255 32.1092C5.87183 32.1485 5.92594 32.1729 5.98486 32.1729H7.47038C7.52231 32.1729 7.56813 32.1516 7.60305 32.1171C7.65149 32.0691 7.68291 31.9988 7.68989 31.9203L9.31201 14.0176ZM38.7392 6.81608H1.26077C1.13902 6.81608 1.02817 6.86626 0.946999 6.947C0.866264 7.02773 0.816077 7.13858 0.816077 7.26034V9.28918C0.816077 9.41094 0.866264 9.52222 0.946999 9.60296C1.02773 9.68369 1.13858 9.73388 1.26077 9.73388H5.3608H34.6396H38.7397C38.8614 9.73388 38.9727 9.68369 39.053 9.60296C39.1337 9.52222 39.1839 9.41138 39.1839 9.28918V7.26034C39.1839 7.13858 39.1337 7.0273 39.053 6.947C38.9723 6.86626 38.861 6.81608 38.7392 6.81608Z" fill="#2A2928"/>
</g>
</svg>
