<svg width="40" height="40" viewBox="0 0 40 40" fill="none" xmlns="http://www.w3.org/2000/svg">
<g id="Property 1=&#209;&#129;&#209;&#130;&#208;&#190;&#208;&#187;&#208;&#184;&#208;&#186;&#208;&#184;">
<path id="Vector" d="M34.6365 17.1134V12.5661H32.8539V8H21.7889C20.613 8 19.6497 9.25098 19.6497 10.7397C19.6497 12.2283 20.613 13.4793 21.7889 13.4793H21.9828C21.6237 14.0219 21.4322 14.6582 21.4322 15.3089C21.4322 15.9595 21.6237 16.5958 21.9828 17.1384H0.00928924V30.0298C-0.0352636 30.4393 0.0815984 30.85 0.335047 31.1747C0.588495 31.4994 0.958556 31.7125 1.36661 31.7687C1.70485 31.7369 2.02152 31.5885 2.26231 31.3488C2.50311 31.1092 2.65304 30.7932 2.68639 30.4552L4.21259 22.624H35.7874L37.3136 30.4489C37.347 30.787 37.4969 31.1029 37.7377 31.3426C37.9785 31.5823 38.2952 31.7307 38.6334 31.7624C39.0414 31.7062 39.4115 31.4932 39.665 31.1685C39.9184 30.8438 40.0353 30.433 39.9907 30.0236V17.1134H34.6365ZM32.8539 13.4856H33.9234V17.1134H32.8539V13.4856ZM21.7889 12.5661C21.0008 12.5661 20.3628 11.7404 20.3628 10.7397C20.3628 9.73887 20.9883 8.91322 21.7889 8.91322H32.1408V10.283H28.9258V11.1963H32.1408V12.5661H21.7889ZM32.1408 13.4856V17.1134H23.5716C22.7834 17.1134 22.1454 16.2878 22.1454 15.287C22.1454 14.2862 22.7709 13.4605 23.5716 13.4605L32.1408 13.4856ZM1.9921 30.2487C1.97682 30.4095 1.90602 30.5598 1.79186 30.674C1.6777 30.7881 1.52733 30.859 1.36661 30.8742C1.17693 30.8419 1.00668 30.7385 0.890491 30.5852C0.7743 30.4318 0.720887 30.2399 0.741114 30.0486V22.624H3.48077L1.9921 30.2487ZM39.2777 30.0486C39.2979 30.2399 39.2445 30.4318 39.1283 30.5852C39.0121 30.7385 38.8418 30.8419 38.6522 30.8742C38.4914 30.859 38.3411 30.7881 38.2269 30.674C38.1128 30.5598 38.0419 30.4095 38.0267 30.2487L36.5255 22.624H39.2839L39.2777 30.0486ZM39.2777 21.7295H0.72235V18.0517H39.2777V21.7295Z" fill="#2A2928"/>
</g>
</svg>
