<svg width="40" height="40" viewBox="0 0 40 40" fill="none" xmlns="http://www.w3.org/2000/svg">
<g id="Property 1=&#209;&#136;&#208;&#176;&#209;&#132;&#208;&#184;" clip-path="url(#clip0_358_3822)">
<path id="Vector" fill-rule="evenodd" clip-rule="evenodd" d="M0.408039 0H16.9081H28.2498H39.5915C39.8171 0 40 0.182854 40 0.408039V39.5841C40 39.8097 39.8171 39.9921 39.5915 39.9921H28.2498H16.9081H0.408039C0.182854 39.9921 0 39.8093 0 39.5841V34.7343V29.8846V10.1076V0.408039C0 0.182854 0.182854 0 0.408039 0ZM24.6639 24.55L26.0926 22.8619C26.1572 22.7856 26.1891 22.6917 26.1891 22.5988H26.19V17.2694C26.19 17.1551 26.1424 17.0512 26.0665 16.977L24.6543 15.4313C24.5028 15.265 24.2449 15.2528 24.0786 15.4042C23.9124 15.5557 23.9002 15.8131 24.0516 15.9798L25.3735 17.427V22.4513L24.042 24.0245C23.8967 24.196 23.918 24.4531 24.0895 24.5984C24.2615 24.7428 24.5185 24.7215 24.6639 24.55ZM32.458 24.0237L31.1266 22.4504V17.4265L32.4485 15.9794C32.5999 15.8131 32.5877 15.5552 32.4214 15.4038C32.2551 15.2524 31.9972 15.2646 31.8458 15.4308L30.4336 16.9766C30.3576 17.0508 30.3101 17.1542 30.3101 17.269V22.5988H30.3109C30.3109 22.6917 30.3424 22.7851 30.4074 22.8619L31.8362 24.55C31.9815 24.7215 32.2385 24.7428 32.41 24.598C32.5816 24.4526 32.6034 24.1956 32.458 24.0237ZM7.28665 37.5675H10.0299C10.2551 37.5675 10.4379 37.3846 10.4379 37.1594C10.4379 36.9338 10.2551 36.7514 10.0299 36.7514H7.28665C7.06147 36.7514 6.87861 36.9343 6.87861 37.1594C6.87861 37.3846 7.06103 37.5675 7.28665 37.5675ZM7.28665 32.7177H10.0299C10.2551 32.7177 10.4379 32.5349 10.4379 32.3097C10.4379 32.0841 10.2551 31.9012 10.0299 31.9012H7.28665C7.06147 31.9012 6.87861 32.0841 6.87861 32.3097C6.87861 32.5349 7.06103 32.7177 7.28665 32.7177ZM5.76491 23.4921L12.1281 17.1289C12.2874 16.9696 12.2874 16.7108 12.1281 16.5515C11.9688 16.3922 11.7101 16.3922 11.5508 16.5515L5.18798 22.9147C5.02869 23.074 5.02869 23.3324 5.18798 23.4921C5.34727 23.6514 5.60562 23.6514 5.76491 23.4921ZM5.78018 19.252L8.82236 16.2103C8.98165 16.051 8.98165 15.7926 8.82236 15.6329C8.66307 15.4736 8.40472 15.4736 8.245 15.6329L5.20326 18.6746C5.04397 18.8339 5.04397 19.0927 5.20326 19.252C5.36211 19.4113 5.6209 19.4113 5.78018 19.252ZM2.80172 12.5885C2.57653 12.5885 2.39368 12.7714 2.39368 12.997V26.996C2.39368 27.2216 2.57653 27.404 2.80172 27.404H14.5144C14.74 27.404 14.9224 27.2212 14.9224 26.996V12.9966C14.9224 12.771 14.7396 12.5881 14.5144 12.5881L2.80172 12.5885ZM14.1063 13.4046H3.20976V26.5871H14.1059L14.1063 13.4046ZM0.816077 9.6991H16.4996V0.816077H0.816077V9.6991ZM16.4996 10.5156H0.816077V29.4765H16.4996V10.5156ZM16.4996 30.293H0.816077V34.3263H16.4996V30.293ZM16.4996 35.1424H0.816077V39.1756H16.4996V35.1424ZM28.6583 0.816077V39.1761H39.1839V0.816077H28.6583ZM27.8418 39.1761V0.816077H17.3161V29.8846V34.7343V39.1761H27.8418Z" fill="#2A2928"/>
</g>
<defs>
<clipPath id="clip0_358_3822">
<rect width="40" height="40" fill="white"/>
</clipPath>
</defs>
</svg>
