<svg width="241" height="40" viewBox="0 0 241 40" fill="none" xmlns="http://www.w3.org/2000/svg">
<path d="M12.4953 3.48V4.68V3.48ZM46.4313 3.48V4.68C45.6953 4.456 45.1193 4.344 44.7033 4.344C43.7113 4.344 43.1193 4.696 42.9273 5.4C42.7353 6.04 42.1593 8.264 41.1993 12.072C37.1033 28.232 35.0233 36.456 34.9593 36.744L34.3833 39H31.5513L24.1113 13.128L18.1113 36.648L18.1593 36.744L18.0153 37.032L17.5353 39H14.7513L5.34331 6.36C5.18331 5.72 4.86331 5.24 4.38331 4.92C3.93531 4.568 3.35931 4.392 2.65531 4.392C2.11131 4.392 1.53531 4.488 0.927314 4.68V3.48H12.4953V4.68C11.8873 4.488 11.3273 4.392 10.8153 4.392C10.3033 4.392 9.90331 4.504 9.61531 4.728C9.32731 4.952 9.18331 5.272 9.18331 5.688C9.18331 5.976 9.21531 6.2 9.27931 6.36L17.5833 34.776L23.3433 10.44L22.1433 6.36C21.9513 5.688 21.7113 5.192 21.4233 4.872C21.1673 4.552 20.7673 4.392 20.2233 4.392C19.8393 4.392 19.3273 4.488 18.6873 4.68V3.48H31.1193V4.68C30.4793 4.488 29.8073 4.392 29.1033 4.392C28.1433 4.392 27.3433 4.568 26.7033 4.92C26.0953 5.272 25.8873 5.752 26.0793 6.36L34.4313 34.872L41.2473 6.36C41.3113 6.168 41.3433 5.928 41.3433 5.64C41.3433 4.712 40.7673 4.248 39.6153 4.248C38.9113 4.248 38.1593 4.392 37.3593 4.68V3.48H46.4313ZM54.2021 39.48C50.8101 39.48 48.3621 38.408 46.8581 36.264C45.3861 34.088 44.6501 31.176 44.6501 27.528C44.6501 24.168 45.4021 21.352 46.9061 19.08C48.4101 16.776 50.8421 15.624 54.2021 15.624C57.5621 15.624 59.9941 16.776 61.4981 19.08C63.0341 21.352 63.8021 24.168 63.8021 27.528C63.8021 31.176 63.0501 34.088 61.5461 36.264C60.0421 38.408 57.5941 39.48 54.2021 39.48ZM54.2021 38.904C56.3781 38.904 57.9621 37.864 58.9541 35.784C59.9461 33.672 60.4421 30.92 60.4421 27.528C60.4421 24.36 59.9301 21.688 58.9061 19.512C57.8821 17.304 56.3141 16.2 54.2021 16.2C52.0901 16.2 50.5221 17.304 49.4981 19.512C48.5061 21.688 48.0101 24.36 48.0101 27.528C48.0101 30.92 48.5061 33.672 49.4981 35.784C50.4901 37.864 52.0581 38.904 54.2021 38.904ZM78.2636 39.48C74.8716 39.48 72.4236 38.408 70.9196 36.264C69.4476 34.088 68.7116 31.176 68.7116 27.528C68.7116 24.168 69.4636 21.352 70.9676 19.08C72.4716 16.776 74.9036 15.624 78.2636 15.624C81.6236 15.624 84.0556 16.776 85.5596 19.08C87.0956 21.352 87.8636 24.168 87.8636 27.528C87.8636 31.176 87.1116 34.088 85.6076 36.264C84.1036 38.408 81.6556 39.48 78.2636 39.48ZM78.2636 38.904C80.4396 38.904 82.0236 37.864 83.0156 35.784C84.0076 33.672 84.5036 30.92 84.5036 27.528C84.5036 24.36 83.9916 21.688 82.9676 19.512C81.9436 17.304 80.3756 16.2 78.2636 16.2C76.1516 16.2 74.5836 17.304 73.5596 19.512C72.5676 21.688 72.0716 24.36 72.0716 27.528C72.0716 30.92 72.5676 33.672 73.5596 35.784C74.5516 37.864 76.1196 38.904 78.2636 38.904ZM101.173 39.48C98.1971 39.48 96.0531 38.28 94.7411 35.88C93.4291 33.448 92.7731 30.36 92.7731 26.616C92.7731 24.632 93.0931 22.808 93.7331 21.144C94.3731 19.48 95.3171 18.152 96.5651 17.16C97.8451 16.136 99.3971 15.624 101.221 15.624C102.757 15.624 104.085 16.072 105.205 16.968C106.325 17.864 107.221 19.032 107.893 20.472H108.661L108.709 7.944V3.096C108.229 3.256 107.717 3.336 107.173 3.336C106.949 3.336 106.613 3.304 106.165 3.24V1.944H106.597C106.597 2.168 106.709 2.36 106.933 2.52C107.189 2.68 107.477 2.76 107.797 2.76C108.277 2.76 108.757 2.552 109.237 2.136C109.749 1.688 110.213 1.176 110.629 0.599999H111.301V37.128C111.365 38.056 111.733 38.52 112.405 38.52C112.789 38.52 113.205 38.44 113.653 38.28V39H109.573L108.469 35.496H107.605C106.293 38.152 104.149 39.48 101.173 39.48ZM102.037 38.616C104.341 38.616 105.925 37.576 106.789 35.496C107.653 33.384 108.085 30.68 108.085 27.384C108.085 25.848 107.861 24.216 107.413 22.488C106.997 20.76 106.325 19.288 105.397 18.072C104.469 16.824 103.317 16.2 101.941 16.2C99.9571 16.2 98.4851 17.272 97.5251 19.416C96.5971 21.56 96.1331 24.2 96.1331 27.336C96.1331 30.536 96.5971 33.224 97.5251 35.4C98.4531 37.544 99.9571 38.616 102.037 38.616ZM145.638 39.96C142.918 39.96 140.326 39.112 137.862 37.416C135.43 35.688 133.478 33.384 132.006 30.504C130.534 27.624 129.798 24.536 129.798 21.24C129.798 17.656 130.502 14.44 131.91 11.592C133.318 8.744 135.238 6.52 137.67 4.92C140.102 3.32 142.806 2.52 145.782 2.52C147.446 2.52 149.35 2.968 151.494 3.864C153.67 4.76 155.19 5.784 156.054 6.936L156.774 3.336H157.59V14.04H156.582C156.582 12.376 156.07 10.728 155.046 9.096C154.054 7.464 152.678 6.12 150.918 5.064C149.158 4.008 147.222 3.48 145.11 3.48C142.934 3.48 140.998 4.248 139.302 5.784C137.606 7.32 136.278 9.432 135.318 12.12C134.358 14.776 133.878 17.752 133.878 21.048C133.878 24.216 134.342 27.176 135.27 29.928C136.23 32.648 137.67 34.84 139.59 36.504C141.542 38.168 143.91 39 146.694 39C148.742 39 150.614 38.408 152.31 37.224C154.006 36.04 155.27 34.504 156.102 32.616C156.198 32.392 156.39 31.736 156.678 30.648C156.902 29.688 157.126 28.888 157.35 28.248C157.606 27.576 157.942 26.984 158.358 26.472H159.03C158.518 26.92 158.15 27.752 157.926 28.968C157.734 30.184 157.638 31.864 157.638 34.008C157.638 34.776 157.014 35.64 155.766 36.6C154.55 37.528 152.998 38.328 151.11 39C149.254 39.64 147.43 39.96 145.638 39.96ZM174.424 19.656C174.424 20.04 174.36 20.472 174.232 20.952C174.104 21.432 174.024 21.72 173.992 21.816C173.736 22.648 173.608 23.208 173.608 23.496C173.608 24.136 174.072 24.456 175 24.456V24.936C173.688 24.936 172.744 24.6 172.168 23.928C171.624 23.256 171.352 22.392 171.352 21.336C171.352 20.824 171.4 20.328 171.496 19.848C171.688 18.92 171.784 18.2 171.784 17.688C171.784 17.144 171.672 16.776 171.448 16.584C171.256 16.36 170.936 16.248 170.488 16.248C169.56 16.248 168.84 17.24 168.328 19.224C167.816 21.176 167.56 23.464 167.56 26.088V36.12C167.56 36.952 167.624 37.56 167.752 37.944C167.912 38.328 168.248 38.52 168.76 38.52C169.016 38.52 169.416 38.44 169.96 38.28V39H162.04V38.28C162.584 38.44 162.984 38.52 163.24 38.52C163.816 38.52 164.184 38.328 164.344 37.944C164.504 37.528 164.584 36.92 164.584 36.12V19.032C164.104 19.192 163.592 19.272 163.048 19.272C162.824 19.272 162.488 19.24 162.04 19.176V17.88H162.472C162.472 18.104 162.584 18.296 162.808 18.456C163.064 18.616 163.352 18.696 163.672 18.696C164.152 18.696 164.568 18.52 164.92 18.168C165.272 17.816 165.688 17.288 166.168 16.584H166.648L166.696 20.472H167.176C167.56 18.808 168.088 17.592 168.76 16.824C169.464 16.024 170.2 15.624 170.968 15.624C172.088 15.624 172.936 16.04 173.512 16.872C174.12 17.704 174.424 18.632 174.424 19.656ZM184.339 39.48C182.547 39.48 181.043 38.936 179.827 37.848C178.611 36.728 178.003 35.144 178.003 33.096C178.003 31.624 178.499 30.376 179.491 29.352C180.483 28.296 181.571 27.576 182.755 27.192C183.363 27 184.067 26.824 184.867 26.664C185.699 26.472 186.259 26.344 186.547 26.28C188.147 25.96 189.347 25.672 190.147 25.416C190.947 25.128 191.427 24.744 191.587 24.264C191.587 21.96 191.139 20.04 190.243 18.504C189.379 16.968 187.923 16.2 185.875 16.2C184.595 16.2 183.635 16.664 182.995 17.592C182.387 18.488 182.083 19.704 182.083 21.24C182.083 21.656 182.163 21.96 182.323 22.152C182.483 22.312 182.851 22.392 183.427 22.392C183.779 22.392 184.083 22.312 184.339 22.152C184.595 21.992 184.723 21.8 184.723 21.576H185.155V22.872H178.867C178.867 21.72 179.203 20.584 179.875 19.464C180.547 18.312 181.475 17.384 182.659 16.68C183.843 15.944 185.155 15.576 186.595 15.576C188.515 15.576 190.051 16.024 191.203 16.92C192.387 17.784 193.219 18.84 193.699 20.088C194.211 21.304 194.467 22.52 194.467 23.736V34.152C194.467 36.552 194.979 37.752 196.003 37.752C196.323 37.752 196.611 37.544 196.867 37.128C197.155 36.68 197.299 36.232 197.299 35.784H197.779C197.779 36.968 197.411 37.88 196.675 38.52C195.971 39.16 195.155 39.48 194.227 39.48C193.139 39.48 192.419 39 192.067 38.04C191.747 37.08 191.587 35.736 191.587 34.008V31.8C191.587 32.248 191.363 33.096 190.915 34.344C190.499 35.592 189.747 36.76 188.659 37.848C187.571 38.936 186.131 39.48 184.339 39.48ZM185.443 38.136C186.531 38.136 187.539 37.704 188.467 36.84C189.395 35.976 190.131 34.952 190.675 33.768C191.219 32.584 191.491 31.592 191.491 30.792V25.32C191.491 25.416 191.331 25.512 191.011 25.608C190.691 25.704 190.291 25.8 189.811 25.896C187.731 26.44 186.211 26.888 185.251 27.24C183.747 27.784 182.643 28.552 181.939 29.544C181.235 30.504 180.883 31.592 180.883 32.808C180.883 34.216 181.267 35.464 182.035 36.552C182.835 37.608 183.971 38.136 185.443 38.136ZM217.684 39.48C216.5 39.48 215.732 39.032 215.38 38.136C215.06 37.208 214.9 35.864 214.9 34.104V31.8V17.256H206.596V36.12C206.596 36.952 206.66 37.56 206.788 37.944C206.948 38.328 207.284 38.52 207.796 38.52C208.052 38.52 208.452 38.44 208.996 38.28V39H201.076V38.28C201.62 38.44 202.02 38.52 202.276 38.52C202.852 38.52 203.22 38.328 203.38 37.944C203.54 37.528 203.62 36.92 203.62 36.12V17.256H200.308V16.536H203.62V8.136C203.62 6.248 203.94 4.728 204.58 3.576C205.22 2.424 205.972 1.608 206.836 1.128C207.7 0.647999 208.532 0.407999 209.332 0.407999C210.804 0.407999 211.956 0.775999 212.788 1.512C213.62 2.216 214.036 3.256 214.036 4.632C214.036 5.016 213.908 5.752 213.652 6.84C213.62 6.968 213.54 7.336 213.412 7.944C213.284 8.552 213.22 9.08 213.22 9.528C213.22 10.712 213.78 11.304 214.9 11.304C215.572 11.304 216.068 11.096 216.388 10.68C216.74 10.264 216.916 9.816 216.916 9.336H217.924L217.876 16.536H221.812V17.256H217.876L217.828 34.152C217.828 35.432 217.94 36.36 218.164 36.936C218.42 37.48 218.82 37.752 219.364 37.752C220.004 37.752 220.532 37.464 220.948 36.888C221.364 36.312 221.668 35.672 221.86 34.968C222.084 34.232 222.196 33.656 222.196 33.24H222.676C222.676 34.136 222.468 35.08 222.052 36.072C221.636 37.032 221.044 37.848 220.276 38.52C219.54 39.16 218.676 39.48 217.684 39.48ZM214.9 11.784C213.716 11.784 212.74 11.272 211.972 10.248C211.204 9.192 210.82 7.96 210.82 6.552C210.82 6.104 210.868 5.624 210.964 5.112C211.06 3.96 211.108 3.336 211.108 3.24C211.108 2.504 210.948 1.928 210.628 1.512C210.34 1.064 209.796 0.839999 208.996 0.839999C208.196 0.839999 207.588 1.352 207.172 2.376C206.788 3.368 206.596 5.288 206.596 8.136V16.536H214.9V11.784ZM233.373 39.48C230.717 39.48 228.685 38.456 227.277 36.408L226.845 39H226.221V30.408H227.085C227.085 33.16 227.533 35.208 228.429 36.552C229.325 37.864 230.685 38.52 232.509 38.52C234.013 38.52 235.133 38.008 235.869 36.984C236.605 35.928 236.973 34.584 236.973 32.952C236.973 31.64 236.509 30.6 235.581 29.832C234.685 29.064 233.357 28.264 231.597 27.432C230.381 26.856 229.421 26.344 228.717 25.896C228.013 25.448 227.405 24.888 226.893 24.216C226.413 23.544 226.173 22.728 226.173 21.768C226.173 19.816 226.781 18.312 227.997 17.256C229.245 16.168 230.813 15.624 232.701 15.624C233.821 15.624 234.877 15.896 235.869 16.44C236.893 16.952 237.485 17.496 237.645 18.072L237.981 15.624H238.605V21.912H237.885C237.885 20.504 237.453 19.24 236.589 18.12C235.725 17 234.589 16.44 233.181 16.44C230.589 16.44 229.293 17.864 229.293 20.712C229.293 21.704 229.661 22.504 230.397 23.112C231.133 23.72 232.301 24.44 233.901 25.272C235.245 25.976 236.333 26.616 237.165 27.192C237.997 27.736 238.701 28.456 239.277 29.352C239.885 30.248 240.189 31.336 240.189 32.616C240.189 33.704 239.901 34.776 239.325 35.832C238.749 36.888 237.933 37.768 236.877 38.472C235.853 39.144 234.685 39.48 233.373 39.48Z" fill="white"/>
</svg>
