<svg width="28" height="28" viewBox="0 0 28 28" fill="none" xmlns="http://www.w3.org/2000/svg">
<g id="left icon">
<g id="Group">
<path id="Vector" d="M25.5429 24.7262L25.5429 24.7262L26.9049 9.75H1.09508L2.45714 24.7262L2.45715 24.7262C2.51359 25.3474 2.80018 25.925 3.26064 26.3457C3.72101 26.7663 4.32194 26.9997 4.9455 27L25.5429 24.7262ZM25.5429 24.7262C25.4864 25.3474 25.1998 25.925 24.7394 26.3457M25.5429 24.7262L24.7394 26.3457M24.7394 26.3457C24.279 26.7663 23.6781 26.9997 23.0545 27M24.7394 26.3457L23.0545 27M23.0545 27C23.0544 27 23.0542 27 23.0541 27M23.0545 27H23.0541M23.0541 27H4.9459H23.0541Z" stroke="#145144" stroke-width="2" stroke-linejoin="round"/>
<g id="Vector_2">
<mask id="path-2-inside-1_898_4126" fill="white">
<path d="M6.99902 12.25V7C6.99902 5.14348 7.73652 3.36301 9.04928 2.05025C10.362 0.737498 12.1425 0 13.999 0C15.8555 0 17.636 0.737498 18.9488 2.05025C20.2615 3.36301 20.999 5.14348 20.999 7V12.25"/>
</mask>
<path d="M4.99902 12.25C4.99902 13.3546 5.89445 14.25 6.99902 14.25C8.10359 14.25 8.99902 13.3546 8.99902 12.25H4.99902ZM13.999 0V-2V0ZM20.999 7H22.999H20.999ZM18.999 12.25C18.999 13.3546 19.8945 14.25 20.999 14.25C22.1036 14.25 22.999 13.3546 22.999 12.25H18.999ZM8.99902 12.25V7H4.99902V12.25H8.99902ZM8.99902 7C8.99902 5.67392 9.52581 4.40215 10.4635 3.46447L7.63506 0.636039C5.94723 2.32387 4.99902 4.61305 4.99902 7H8.99902ZM10.4635 3.46447C11.4012 2.52678 12.6729 2 13.999 2V-2C11.6121 -2 9.32289 -1.05179 7.63506 0.636039L10.4635 3.46447ZM13.999 2C15.3251 2 16.5969 2.52678 17.5346 3.46447L20.363 0.636039C18.6752 -1.05179 16.386 -2 13.999 -2V2ZM17.5346 3.46447C18.4722 4.40215 18.999 5.67392 18.999 7H22.999C22.999 4.61305 22.0508 2.32387 20.363 0.636039L17.5346 3.46447ZM18.999 7V12.25H22.999V7H18.999Z" fill="#145144" mask="url(#path-2-inside-1_898_4126)"/>
</g>
</g>
</g>
</svg>